<svg xmlns="http://www.w3.org/2000/svg" xmlns:xlink="http://www.w3.org/1999/xlink" preserveAspectRatio="xMidYMid" width="50" height="50" viewBox="0 0 50 50">
  <defs>
    <style>
      .cls-1 {
        fill: #fff;
        stroke: #333;
        stroke-linejoin: round;
        stroke-width: 2px;
        fill-opacity: 0;
      }

      .cls-2 {
        fill: #423e31;
        fill-rule: evenodd;
      }
    </style>
  </defs>
  <g>
    <circle cx="25" cy="25" r="24" class="cls-1"/>
    <path d="M33.422,34.180 C31.288,36.700 28.318,38.387 25.061,38.930 C25.012,38.938 24.962,38.943 24.912,38.943 C24.862,38.943 24.812,38.938 24.762,38.930 C21.505,38.387 18.536,36.700 16.401,34.180 C14.267,31.659 13.091,28.452 13.091,25.149 L13.091,15.598 C13.091,15.095 13.499,14.688 14.001,14.688 C18.300,14.688 21.270,13.295 24.407,11.203 C24.713,10.999 25.110,10.999 25.416,11.203 C28.553,13.295 31.523,14.688 35.822,14.688 C36.325,14.688 36.732,15.095 36.732,15.598 L36.732,25.149 C36.732,28.452 35.556,31.659 33.422,34.180 ZM34.913,16.487 C30.640,16.296 27.567,14.766 24.912,13.048 C21.901,14.995 18.955,16.317 14.910,16.488 L14.910,25.149 C14.910,31.063 19.107,36.069 24.912,37.110 C30.716,36.069 34.913,31.063 34.913,25.149 L34.913,16.487 ZM30.744,30.429 C30.726,30.450 30.707,30.471 30.687,30.492 C29.095,32.078 27.022,32.879 24.912,32.879 C22.735,32.879 20.682,32.033 19.136,30.492 C19.116,30.471 19.097,30.450 19.079,30.429 C17.626,28.951 16.728,26.925 16.728,24.693 C16.728,20.179 20.399,16.507 24.912,16.507 C29.424,16.507 33.095,20.179 33.095,24.693 C33.095,26.925 32.197,28.951 30.744,30.429 ZM24.912,31.060 C26.265,31.060 27.563,30.633 28.646,29.845 C27.567,29.059 26.271,28.634 24.912,28.634 C23.552,28.634 22.256,29.059 21.177,29.845 C22.286,30.652 23.592,31.060 24.912,31.060 ZM24.912,18.326 C21.402,18.326 18.547,21.183 18.547,24.693 C18.547,26.147 19.037,27.488 19.860,28.561 C21.296,27.430 23.057,26.815 24.912,26.815 C26.766,26.815 28.528,27.430 29.963,28.561 C30.786,27.488 31.276,26.147 31.276,24.693 C31.276,21.183 28.421,18.326 24.912,18.326 ZM21.578,23.480 C21.578,21.641 23.073,20.145 24.912,20.145 C26.750,20.145 28.245,21.641 28.245,23.480 C28.245,25.319 26.750,26.815 24.912,26.815 C23.073,26.815 21.578,25.319 21.578,23.480 ZM24.912,24.996 C25.747,24.996 26.427,24.316 26.427,23.480 C26.427,22.645 25.747,21.965 24.912,21.965 C24.076,21.965 23.396,22.645 23.396,23.480 C23.396,24.316 24.076,24.996 24.912,24.996 Z" class="cls-2"/>
  </g>
</svg>
