<svg xmlns="http://www.w3.org/2000/svg" xmlns:xlink="http://www.w3.org/1999/xlink" preserveAspectRatio="xMidYMid" width="120.594" height="138.62" viewBox="0 0 120.594 138.62">
  <defs>
    <style>
      .cls-1 {
        fill: #191919;
        stroke: #dd2121;
        stroke-linejoin: round;
        stroke-width: 2px;
        fill-opacity: 0;
      }

      .cls-1, .cls-2 {
        fill-rule: evenodd;
      }

      .cls-2 {
        fill: #dd2121;
      }
    </style>
  </defs>
  <g>
    <path d="M60.597,137.618 L57.675,135.948 L57.166,122.650 L60.541,124.578 L108.285,96.734 L108.043,41.465 L60.058,14.039 L12.314,41.883 L12.553,96.688 L1.241,92.099 L0.993,35.414 L60.000,1.002 L119.306,34.898 L119.604,103.205 L60.597,137.618 Z" class="cls-1"/>
    <path d="M80.756,87.125 C75.279,92.603 67.996,95.619 60.250,95.619 C52.504,95.619 45.221,92.603 39.744,87.125 C34.266,81.648 31.250,74.365 31.250,66.619 C31.250,58.873 34.266,51.591 39.744,46.113 C45.221,40.636 52.504,37.619 60.250,37.619 C67.996,37.619 75.279,40.636 80.756,46.113 C86.233,51.591 89.250,58.873 89.250,66.619 C89.250,74.365 86.233,81.648 80.756,87.125 ZM60.250,39.930 C45.533,39.930 33.561,51.903 33.561,66.619 C33.561,81.336 45.533,93.309 60.250,93.309 C74.966,93.309 86.939,81.336 86.939,66.619 C86.939,51.903 74.966,39.930 60.250,39.930 ZM85.183,67.709 C85.156,68.330 84.644,68.814 84.029,68.814 C84.012,68.814 83.995,68.814 83.978,68.813 C83.341,68.786 82.846,68.247 82.874,67.609 C82.888,67.283 82.895,66.950 82.895,66.619 C82.895,65.981 83.413,65.464 84.051,65.464 C84.689,65.464 85.206,65.981 85.206,66.619 C85.206,66.983 85.198,67.349 85.183,67.709 ZM83.601,71.392 C84.219,71.549 84.593,72.178 84.435,72.797 C81.619,83.853 71.674,91.575 60.250,91.575 C59.612,91.575 59.094,91.058 59.094,90.420 C59.094,89.782 59.612,89.265 60.250,89.265 C70.616,89.265 79.641,82.258 82.196,72.227 C82.353,71.608 82.982,71.235 83.601,71.392 ZM74.577,75.804 C74.577,78.640 72.270,80.946 69.435,80.946 C66.600,80.946 64.294,78.640 64.294,75.804 C64.294,72.969 66.600,70.663 69.435,70.663 C72.270,70.663 74.577,72.969 74.577,75.804 ZM66.604,75.805 C66.604,77.365 67.874,78.635 69.435,78.635 C70.996,78.635 72.266,77.365 72.266,75.805 C72.266,74.244 70.996,72.974 69.435,72.974 C67.874,72.974 66.604,74.244 66.604,75.805 ZM51.104,81.533 C50.313,82.328 49.268,82.726 48.223,82.726 C47.192,82.726 46.162,82.339 45.373,81.565 C44.593,80.799 44.161,79.774 44.156,78.681 C44.151,77.588 44.574,76.560 45.347,75.787 L69.441,51.693 C71.018,50.116 73.583,50.116 75.160,51.693 C76.736,53.270 76.736,55.835 75.160,57.412 L51.104,81.533 ZM73.526,53.327 C72.850,52.651 71.751,52.652 71.075,53.327 L46.981,77.421 C46.647,77.755 46.464,78.198 46.466,78.671 C46.469,79.143 46.655,79.585 46.992,79.916 C47.678,80.590 48.789,80.584 49.467,79.902 L73.525,55.779 C74.201,55.102 74.201,54.003 73.526,53.327 ZM51.065,62.576 C48.230,62.576 45.923,60.269 45.923,57.434 C45.923,54.599 48.229,52.293 51.065,52.293 C53.900,52.293 56.206,54.599 56.206,57.434 C56.206,60.269 53.900,62.576 51.065,62.576 ZM51.065,54.603 C49.504,54.603 48.234,55.873 48.234,57.434 C48.234,58.995 49.504,60.265 51.065,60.265 C52.625,60.265 53.895,58.995 53.895,57.434 C53.895,55.873 52.625,54.603 51.065,54.603 Z" class="cls-2"/>
  </g>
</svg>
