<svg xmlns="http://www.w3.org/2000/svg" xmlns:xlink="http://www.w3.org/1999/xlink" preserveAspectRatio="xMidYMid" width="50" height="50" viewBox="0 0 50 50">
  <defs>
    <style>
      .cls-1 {
        fill: #fff;
        stroke: #333;
        stroke-linejoin: round;
        stroke-width: 2px;
        fill-opacity: 0;
      }

      .cls-2 {
        fill: #333;
        fill-rule: evenodd;
      }
    </style>
  </defs>
  <g>
    <circle cx="25" cy="25" r="24" class="cls-1"/>
    <path d="M33.744,26.348 C33.741,26.347 33.738,26.347 33.735,26.346 C32.697,26.210 31.674,25.955 30.696,25.590 C29.457,25.124 28.048,25.424 27.106,26.356 C27.105,26.357 27.103,26.358 27.102,26.360 L26.213,27.249 C24.004,25.853 22.132,23.981 20.736,21.771 L21.625,20.882 C21.626,20.880 21.628,20.879 21.629,20.877 C22.560,19.936 22.861,18.526 22.396,17.289 C22.030,16.308 21.775,15.285 21.638,14.248 C21.638,14.244 21.637,14.241 21.637,14.238 C21.399,12.554 19.938,11.297 18.240,11.311 L14.747,11.311 C14.647,11.311 14.545,11.315 14.444,11.325 C12.575,11.493 11.192,13.151 11.361,15.021 C11.362,15.026 11.362,15.032 11.363,15.037 C11.761,18.788 13.055,22.444 15.105,25.610 C16.965,28.537 19.495,31.067 22.421,32.928 C25.571,34.971 29.210,36.265 32.943,36.670 C32.949,36.671 32.956,36.672 32.962,36.672 C33.064,36.681 33.167,36.686 33.269,36.686 C33.273,36.686 33.278,36.686 33.282,36.686 C35.158,36.678 36.679,35.145 36.671,33.273 L36.671,29.788 C36.706,28.066 35.451,26.588 33.744,26.348 ZM34.527,29.776 L34.527,33.277 C34.530,33.972 33.967,34.539 33.274,34.542 C33.236,34.542 33.200,34.540 33.163,34.537 C29.764,34.166 26.452,32.987 23.583,31.126 C23.580,31.124 23.578,31.122 23.575,31.121 C20.909,29.426 18.605,27.122 16.912,24.456 C16.910,24.453 16.908,24.451 16.906,24.448 C15.039,21.565 13.860,18.236 13.496,14.820 C13.437,14.132 13.948,13.522 14.637,13.460 C14.674,13.457 14.712,13.455 14.748,13.455 L18.245,13.455 C18.252,13.455 18.260,13.455 18.268,13.455 C18.891,13.455 19.424,13.916 19.514,14.534 C19.672,15.730 19.966,16.909 20.388,18.041 C20.560,18.499 20.450,19.019 20.107,19.368 L18.629,20.846 C18.288,21.187 18.217,21.714 18.455,22.134 C20.209,25.219 22.766,27.776 25.850,29.530 C26.270,29.769 26.797,29.698 27.138,29.356 L28.616,27.878 C28.964,27.535 29.484,27.425 29.945,27.598 C31.074,28.019 32.253,28.313 33.449,28.471 C34.080,28.563 34.543,29.111 34.528,29.749 C34.527,29.758 34.527,29.767 34.527,29.776 Z" class="cls-2"/>
  </g>
</svg>
