<svg xmlns="http://www.w3.org/2000/svg" xmlns:xlink="http://www.w3.org/1999/xlink" preserveAspectRatio="xMidYMid" width="50" height="50" viewBox="0 0 50 50">
  <defs>
    <style>
      .cls-1 {
        fill: #fff;
        stroke: #333;
        stroke-linejoin: round;
        stroke-width: 2px;
        fill-opacity: 0;
      }

      .cls-2 {
        fill: #333;
        fill-rule: evenodd;
      }
    </style>
  </defs>
  <g>
    <circle cx="25" cy="25" r="24" class="cls-1"/>
    <path d="M37.729,37.613 L26.136,37.613 L26.136,37.324 C25.237,37.515 24.317,37.613 23.390,37.613 C19.885,37.613 16.591,36.249 14.113,33.772 C11.635,31.295 10.271,28.003 10.271,24.500 C10.271,20.997 11.635,17.705 14.113,15.228 C16.591,12.751 19.885,11.387 23.390,11.387 C26.894,11.387 30.188,12.751 32.666,15.228 C35.144,17.705 36.509,20.997 36.509,24.500 C36.509,25.010 36.478,25.519 36.420,26.025 L37.729,26.025 L37.729,37.613 ZM26.618,26.025 L26.618,26.025 L30.864,26.025 C30.965,25.525 31.017,25.015 31.017,24.500 C31.017,20.606 28.081,17.385 24.305,16.931 L24.305,18.834 C25.712,19.233 26.746,20.528 26.746,22.060 L24.915,22.060 C24.915,21.563 24.675,21.120 24.305,20.841 L24.305,23.713 C25.421,24.030 26.301,24.909 26.618,26.025 ZM24.915,26.939 C24.915,26.442 24.675,25.999 24.305,25.721 L24.305,28.159 C24.675,27.880 24.915,27.437 24.915,26.939 ZM24.305,30.166 L24.305,32.069 C24.933,31.994 25.545,31.843 26.136,31.614 L26.136,28.865 C25.698,29.487 25.055,29.953 24.305,30.166 ZM23.390,13.217 C17.165,13.217 12.101,18.278 12.101,24.500 C12.101,30.721 17.165,35.783 23.390,35.783 C24.321,35.783 25.242,35.670 26.136,35.447 L26.136,33.548 C25.250,33.817 24.331,33.953 23.390,33.953 C18.175,33.953 13.932,29.712 13.932,24.500 C13.932,19.287 18.175,15.047 23.390,15.047 C28.605,15.047 32.848,19.287 32.848,24.500 C32.848,25.013 32.805,25.523 32.724,26.025 L34.576,26.025 C34.644,25.521 34.678,25.011 34.678,24.500 C34.678,18.278 29.614,13.217 23.390,13.217 ZM21.864,26.939 C21.864,27.437 22.104,27.880 22.474,28.159 L22.474,25.287 C21.067,24.888 20.034,23.593 20.034,22.060 C20.034,20.528 21.068,19.233 22.475,18.834 L22.475,16.931 C18.699,17.385 15.762,20.606 15.762,24.500 C15.762,28.394 18.699,31.615 22.474,32.069 L22.474,30.166 C21.067,29.767 20.034,28.472 20.034,26.939 L21.864,26.939 ZM21.864,22.060 C21.864,22.558 22.104,23.001 22.475,23.279 L22.475,20.841 C22.104,21.120 21.864,21.563 21.864,22.060 ZM35.899,27.854 L27.966,27.854 L27.966,35.783 L35.899,35.783 L35.899,27.854 ZM35.631,32.056 L34.336,33.350 L32.909,31.923 L32.909,34.563 L31.078,34.563 L31.078,31.862 L29.590,33.350 L28.296,32.056 L31.963,28.390 L35.631,32.056 Z" class="cls-2"/>
  </g>
</svg>
