<svg xmlns="http://www.w3.org/2000/svg" xmlns:xlink="http://www.w3.org/1999/xlink" preserveAspectRatio="xMidYMid" width="120.59" height="138.62" viewBox="0 0 120.59 138.62">
  <defs>
    <style>
      .cls-1 {
        fill: #191919;
        stroke: #dd2121;
        stroke-linejoin: round;
        stroke-width: 2px;
        fill-opacity: 0;
      }

      .cls-1, .cls-2 {
        fill-rule: evenodd;
      }

      .cls-2 {
        fill: #dd2121;
      }
    </style>
  </defs>
  <g>
    <path d="M60.597,137.618 L57.675,135.948 L57.166,122.650 L60.541,124.578 L108.285,96.734 L108.043,41.465 L60.058,14.039 L12.314,41.883 L12.553,96.688 L1.241,92.099 L0.993,35.414 L60.000,1.002 L119.306,34.898 L119.604,103.205 L60.597,137.618 Z" class="cls-1"/>
    <path d="M66.233,94.017 L66.233,72.499 L87.751,72.499 L87.751,94.017 L66.233,94.017 ZM85.958,74.292 L77.888,74.292 L77.888,85.577 L81.738,81.728 L83.005,82.995 L76.992,89.009 L70.978,82.995 L72.246,81.728 L76.095,85.577 L76.095,74.292 L68.026,74.292 L68.026,92.224 L85.958,92.224 L85.958,74.292 ZM45.611,81.465 L58.163,81.465 C58.658,81.465 59.060,81.867 59.060,82.362 C59.060,82.856 58.658,83.258 58.163,83.258 L45.611,83.258 C45.116,83.258 44.715,82.856 44.715,82.362 C44.715,81.867 45.116,81.465 45.611,81.465 ZM45.611,74.292 L60.853,74.292 C61.348,74.292 61.750,74.694 61.750,75.189 C61.750,75.684 61.348,76.085 60.853,76.085 L45.611,76.085 C45.116,76.085 44.715,75.684 44.715,75.189 C44.715,74.694 45.116,74.292 45.611,74.292 ZM68.026,68.913 L45.611,68.913 C45.116,68.913 44.715,68.511 44.715,68.016 C44.715,67.521 45.116,67.119 45.611,67.119 L68.026,67.119 C68.521,67.119 68.923,67.521 68.923,68.016 C68.923,68.511 68.521,68.913 68.026,68.913 ZM45.611,54.567 C45.116,54.567 44.715,54.165 44.715,53.670 C44.715,53.176 45.116,52.774 45.611,52.774 L54.577,52.774 C55.072,52.774 55.474,53.176 55.474,53.670 C55.474,54.165 55.072,54.567 54.577,54.567 L45.611,54.567 ZM68.923,60.843 C68.923,61.338 68.521,61.740 68.026,61.740 L45.611,61.740 C45.116,61.740 44.715,61.338 44.715,60.843 C44.715,60.348 45.116,59.946 45.611,59.946 L68.026,59.946 C68.521,59.946 68.923,60.348 68.923,60.843 ZM76.095,54.567 L63.543,54.567 L63.543,42.015 L37.542,42.015 L37.542,92.224 L63.543,92.224 L63.543,94.017 L35.749,94.017 L35.749,40.221 L64.811,40.221 L77.888,53.299 L77.888,69.809 L76.095,69.809 L76.095,54.567 ZM65.336,43.283 L65.336,52.774 L74.828,52.774 L65.336,43.283 Z" class="cls-2"/>
  </g>
</svg>
