<svg xmlns="http://www.w3.org/2000/svg" xmlns:xlink="http://www.w3.org/1999/xlink" preserveAspectRatio="xMidYMid" width="50" height="50" viewBox="0 0 50 50">
  <defs>
    <style>
      .cls-1 {
        fill: #fff;
        stroke: #333;
        stroke-width: 2px;
        fill-opacity: 0;
      }

      .cls-1, .cls-2 {
        stroke-linejoin: round;
      }

      .cls-2 {
        fill: #333;
        stroke: #f6c415;
        stroke-width: 1px;
        fill-rule: evenodd;
      }
    </style>
  </defs>
  <g>
    <circle cx="25" cy="25" r="24" class="cls-1"/>
    <path d="M36.992,38.409 L30.685,38.409 L23.174,44.497 L23.174,38.409 L19.007,38.409 C16.529,38.409 14.501,36.373 14.501,33.885 L14.501,22.026 C14.501,19.538 16.529,17.503 19.007,17.503 L36.993,17.503 C39.471,17.503 41.499,19.538 41.499,22.026 L41.499,33.885 C41.499,36.373 39.471,38.409 36.992,38.409 ZM38.683,22.026 C38.683,21.106 37.909,20.329 36.993,20.329 L19.008,20.329 C18.092,20.329 17.318,21.106 17.318,22.026 L17.318,33.885 C17.318,34.805 18.092,35.582 19.008,35.582 L23.175,35.582 L25.991,35.582 L25.991,38.409 L25.991,38.580 L28.915,36.209 L29.690,35.582 L30.685,35.582 L36.993,35.582 C37.909,35.582 38.683,34.805 38.683,33.885 L38.683,33.885 L38.683,22.026 ZM33.777,29.603 C32.871,29.603 32.136,28.866 32.136,27.956 C32.136,27.047 32.871,26.309 33.777,26.309 C34.683,26.309 35.418,27.047 35.418,27.956 C35.418,28.866 34.683,29.603 33.777,29.603 ZM28.000,29.603 C27.094,29.603 26.359,28.866 26.359,27.956 C26.359,27.047 27.094,26.309 28.000,26.309 C28.906,26.309 29.641,27.047 29.641,27.956 C29.641,28.866 28.906,29.603 28.000,29.603 ZM22.222,29.603 C21.316,29.603 20.581,28.866 20.581,27.956 C20.581,27.047 21.316,26.309 22.222,26.309 C23.128,26.309 23.863,27.047 23.863,27.956 C23.863,28.866 23.128,29.603 22.222,29.603 Z" class="cls-2"/>
  </g>
</svg>
