<svg xmlns="http://www.w3.org/2000/svg" xmlns:xlink="http://www.w3.org/1999/xlink" preserveAspectRatio="xMidYMid" width="120.594" height="138.62" viewBox="0 0 120.594 138.62">
  <defs>
    <style>
      .cls-1 {
        fill: #191919;
        stroke: #dd2121;
        stroke-linejoin: round;
        stroke-width: 2px;
        fill-opacity: 0;
      }

      .cls-1, .cls-2 {
        fill-rule: evenodd;
      }

      .cls-2 {
        fill: #dd2121;
      }
    </style>
  </defs>
  <g>
    <path d="M60.597,137.618 L57.675,135.948 L57.166,122.650 L60.541,124.578 L108.285,96.734 L108.043,41.465 L60.058,14.039 L12.314,41.883 L12.553,96.688 L1.241,92.099 L0.993,35.414 L60.000,1.002 L119.306,34.898 L119.604,103.205 L60.597,137.618 Z" class="cls-1"/>
    <path d="M83.970,68.933 C83.845,74.394 83.486,79.314 80.347,84.218 C76.855,89.674 70.316,94.484 59.768,99.357 C59.604,99.433 59.427,99.471 59.250,99.471 C59.073,99.471 58.896,99.433 58.731,99.357 C48.184,94.484 41.645,89.673 38.153,84.218 C35.014,79.314 34.655,74.394 34.530,68.933 C34.530,68.923 34.530,68.914 34.530,68.904 L34.530,50.164 C34.530,49.480 35.084,48.925 35.767,48.925 C43.925,48.925 49.593,46.313 52.911,44.122 C56.515,41.742 58.215,39.325 58.232,39.301 C58.463,38.968 58.844,38.768 59.249,38.768 C59.250,38.768 59.251,38.768 59.252,38.768 C59.659,38.768 60.040,38.968 60.270,39.303 C60.285,39.325 61.985,41.742 65.589,44.122 C68.907,46.313 74.575,48.925 82.733,48.925 C83.416,48.925 83.970,49.480 83.970,50.164 L83.970,68.904 C83.970,68.914 83.970,68.923 83.970,68.933 ZM81.495,51.384 C73.316,51.132 67.557,48.414 64.113,46.116 C61.785,44.562 60.187,43.004 59.250,41.961 C58.313,43.004 56.715,44.562 54.387,46.116 C50.942,48.413 45.184,51.131 37.005,51.384 L37.005,68.891 C37.126,74.146 37.442,78.515 40.237,82.881 C43.407,87.834 49.456,92.285 59.250,96.866 C69.044,92.285 75.093,87.834 78.263,82.881 C81.058,78.514 81.374,74.146 81.495,68.891 L81.495,51.384 ZM59.250,85.664 C50.379,85.664 43.161,78.439 43.161,69.559 C43.161,60.678 50.379,53.453 59.250,53.453 C68.121,53.453 75.338,60.678 75.338,69.559 C75.338,78.439 68.121,85.664 59.250,85.664 ZM59.250,83.186 C63.578,83.186 67.441,81.153 69.936,77.992 C67.581,75.815 64.512,74.418 61.184,74.027 C60.611,73.960 60.160,73.506 60.098,72.932 C60.035,72.357 60.377,71.816 60.922,71.626 C62.975,70.914 64.355,68.973 64.355,66.798 C64.355,63.980 62.065,61.688 59.250,61.688 C56.435,61.688 54.145,63.980 54.145,66.798 C54.145,68.973 55.524,70.914 57.577,71.626 C58.122,71.816 58.464,72.357 58.402,72.932 C58.339,73.506 57.889,73.960 57.316,74.027 C53.988,74.418 50.918,75.815 48.564,77.992 C51.059,81.153 54.922,83.186 59.250,83.186 ZM59.250,55.931 C51.744,55.931 45.637,62.044 45.637,69.559 C45.637,71.843 46.202,73.998 47.198,75.891 C49.121,74.199 51.421,72.939 53.927,72.200 C52.515,70.804 51.670,68.873 51.670,66.798 C51.670,62.614 55.070,59.210 59.250,59.210 C63.429,59.210 66.830,62.614 66.830,66.798 C66.830,68.873 65.985,70.804 64.572,72.200 C67.079,72.939 69.378,74.199 71.301,75.891 C72.298,73.997 72.863,71.843 72.863,69.559 C72.863,62.044 66.756,55.931 59.250,55.931 ZM57.169,49.661 C57.012,49.777 56.850,49.894 56.683,50.012 C56.467,50.165 56.218,50.238 55.971,50.238 C55.582,50.238 55.200,50.056 54.959,49.714 C54.565,49.155 54.698,48.382 55.256,47.988 C55.409,47.880 55.557,47.773 55.701,47.666 C56.251,47.261 57.026,47.378 57.432,47.929 C57.837,48.480 57.720,49.255 57.169,49.661 ZM53.105,52.188 C49.505,54.064 45.466,55.318 41.101,55.920 C41.044,55.927 40.987,55.931 40.931,55.931 C40.322,55.931 39.791,55.481 39.706,54.860 C39.613,54.183 40.087,53.558 40.764,53.465 C44.847,52.903 48.615,51.734 51.962,49.990 C52.569,49.674 53.316,49.911 53.631,50.517 C53.947,51.124 53.711,51.872 53.105,52.188 Z" class="cls-2"/>
  </g>
</svg>
