<svg xmlns="http://www.w3.org/2000/svg" xmlns:xlink="http://www.w3.org/1999/xlink" preserveAspectRatio="xMidYMid" width="120.59" height="138.62" viewBox="0 0 120.59 138.62">
  <defs>
    <style>
      .cls-1 {
        fill: #191919;
        stroke: #dd2121;
        stroke-linejoin: round;
        stroke-width: 2px;
        fill-opacity: 0;
      }

      .cls-1, .cls-2 {
        fill-rule: evenodd;
      }

      .cls-2 {
        fill: #dd2121;
      }
    </style>
  </defs>
  <g>
    <path d="M60.597,137.618 L57.675,135.948 L57.166,122.649 L60.541,124.578 L108.285,96.734 L108.043,41.464 L60.058,14.039 L12.314,41.883 L12.553,96.688 L1.241,92.099 L0.993,35.414 L60.000,1.002 L119.306,34.898 L119.604,103.206 L60.597,137.618 Z" class="cls-1"/>
    <path d="M87.325,92.275 L70.675,92.275 C70.120,92.275 69.750,91.906 69.750,91.351 L69.750,71.000 C69.750,70.446 70.120,70.076 70.675,70.076 L87.325,70.076 C87.880,70.076 88.250,70.446 88.250,71.000 L88.250,91.351 C88.250,91.906 87.880,92.275 87.325,92.275 ZM86.400,71.926 L71.600,71.926 L71.600,75.626 L86.400,75.626 L86.400,71.926 ZM86.400,77.476 L71.600,77.476 L71.600,90.426 L86.400,90.426 L86.400,77.476 ZM76.225,81.176 L74.375,81.176 L74.375,79.325 L76.225,79.325 L76.225,81.176 ZM76.225,84.875 L74.375,84.875 L74.375,83.026 L76.225,83.026 L76.225,84.875 ZM76.225,88.575 L74.375,88.575 L74.375,86.726 L76.225,86.726 L76.225,88.575 ZM79.925,81.176 L78.075,81.176 L78.075,79.325 L79.925,79.325 L79.925,81.176 ZM79.925,84.875 L78.075,84.875 L78.075,83.026 L79.925,83.026 L79.925,84.875 ZM79.925,88.575 L78.075,88.575 L78.075,86.726 L79.925,86.726 L79.925,88.575 ZM83.625,81.176 L81.775,81.176 L81.775,79.325 L83.625,79.325 L83.625,81.176 ZM83.625,84.875 L81.775,84.875 L81.775,83.026 L83.625,83.026 L83.625,84.875 ZM83.625,88.575 L81.775,88.575 L81.775,86.726 L83.625,86.726 L83.625,88.575 ZM74.375,74.701 L72.525,74.701 L72.525,72.851 L74.375,72.851 L74.375,74.701 ZM77.150,74.701 L75.300,74.701 L75.300,72.851 L77.150,72.851 L77.150,74.701 ZM79.925,74.701 L78.075,74.701 L78.075,72.851 L79.925,72.851 L79.925,74.701 ZM82.700,74.701 L80.850,74.701 L80.850,72.851 L82.700,72.851 L82.700,74.701 ZM85.475,74.701 L83.625,74.701 L83.625,72.851 L85.475,72.851 L85.475,74.701 ZM73.450,68.226 L73.450,65.451 L75.300,65.451 L75.300,68.226 L73.450,68.226 ZM78.075,63.601 C72.432,63.601 67.900,59.068 67.900,53.425 C67.900,47.783 72.432,43.251 78.075,43.251 C83.717,43.251 88.250,47.783 88.250,53.425 C88.250,59.068 83.717,63.601 78.075,63.601 ZM78.075,45.101 C73.450,45.101 69.750,48.801 69.750,53.425 C69.750,58.050 73.450,61.750 78.075,61.750 C82.700,61.750 86.400,58.050 86.400,53.425 C86.400,48.801 82.700,45.101 78.075,45.101 ZM79.925,58.050 L79.000,58.050 L79.000,59.901 L77.150,59.901 L77.150,58.050 L76.225,58.050 C75.115,58.050 74.375,57.310 74.375,56.201 L74.375,55.276 L76.225,55.276 L76.225,56.201 L79.925,56.201 L79.925,54.351 L76.225,54.351 C75.115,54.351 74.375,53.610 74.375,52.501 L74.375,50.650 C74.375,49.541 75.115,48.801 76.225,48.801 L77.150,48.801 L77.150,46.951 L79.000,46.951 L79.000,48.801 L79.925,48.801 C81.035,48.801 81.775,49.541 81.775,50.650 L81.775,51.576 L79.925,51.576 L79.925,50.650 L76.225,50.650 L76.225,52.501 L79.925,52.501 C81.035,52.501 81.775,53.240 81.775,54.351 L81.775,56.201 C81.775,57.310 81.035,58.050 79.925,58.050 ZM65.125,84.875 L41.075,84.875 L41.075,83.026 L65.125,83.026 L65.125,84.875 ZM65.125,80.250 L41.075,80.250 L41.075,78.401 L65.125,78.401 L65.125,80.250 ZM56.800,73.776 L60.500,73.776 L60.500,75.626 L56.800,75.626 L56.800,73.776 ZM59.575,69.151 L59.575,54.721 L58.372,55.923 L57.077,54.628 L59.852,51.853 C60.222,51.483 60.777,51.483 61.147,51.853 L63.922,54.628 L62.627,55.923 L61.425,54.721 L61.425,69.151 L59.575,69.151 ZM64.200,47.876 L50.325,47.876 L50.325,46.025 L64.200,46.025 L64.200,47.876 ZM55.875,43.251 L50.325,43.251 L50.325,41.401 L55.875,41.401 L55.875,43.251 ZM51.897,57.403 L54.672,60.178 L53.377,61.473 L52.175,60.270 L52.175,69.151 L50.325,69.151 L50.325,60.270 L49.122,61.473 L47.827,60.178 L50.602,57.403 C50.972,57.033 51.527,57.033 51.897,57.403 ZM54.950,75.626 L41.075,75.626 L41.075,73.776 L54.950,73.776 L54.950,75.626 ZM41.075,69.151 L41.075,56.570 L39.872,57.773 L38.577,56.478 L41.352,53.703 C41.722,53.333 42.277,53.333 42.647,53.703 L45.422,56.478 L44.127,57.773 L42.925,56.570 L42.925,69.151 L41.075,69.151 ZM73.450,38.626 L45.700,38.626 L45.700,48.801 C45.700,49.355 45.330,49.726 44.775,49.726 L34.600,49.726 L34.600,90.426 L66.975,90.426 L66.975,92.275 L33.675,92.275 C33.120,92.275 32.750,91.906 32.750,91.351 L32.750,48.801 C32.750,48.708 32.842,48.616 32.842,48.523 L32.842,48.431 C32.935,48.338 32.935,48.245 33.027,48.153 L44.127,37.053 C44.220,36.961 44.312,36.961 44.405,36.868 L44.497,36.868 C44.590,36.775 44.682,36.775 44.775,36.775 L74.375,36.775 C74.930,36.775 75.300,37.146 75.300,37.701 L75.300,41.401 L73.450,41.401 L73.450,38.626 ZM43.850,39.921 L39.872,43.898 L35.895,47.876 L43.850,47.876 L43.850,39.921 Z" class="cls-2"/>
  </g>
</svg>
