<svg xmlns="http://www.w3.org/2000/svg" xmlns:xlink="http://www.w3.org/1999/xlink" preserveAspectRatio="xMidYMid" width="120.594" height="138.62" viewBox="0 0 120.594 138.62">
  <defs>
    <style>
      .cls-1 {
        fill: #191919;
        stroke: #dd2121;
        stroke-linejoin: round;
        stroke-width: 2px;
        fill-opacity: 0;
      }

      .cls-1, .cls-2 {
        fill-rule: evenodd;
      }

      .cls-2 {
        fill: #dd2121;
      }
    </style>
  </defs>
  <g>
    <path d="M60.597,137.618 L57.675,135.948 L57.166,122.649 L60.541,124.578 L108.285,96.734 L108.043,41.464 L60.058,14.039 L12.314,41.883 L12.553,96.688 L1.241,92.099 L0.993,35.414 L60.000,1.002 L119.306,34.898 L119.604,103.206 L60.597,137.618 Z" class="cls-1"/>
    <path d="M74.763,51.089 C74.665,51.920 74.263,52.676 73.631,53.220 L67.508,58.873 L69.158,67.205 C69.510,69.009 68.333,70.760 66.534,71.112 C66.324,71.153 66.109,71.174 65.895,71.174 C65.307,71.174 64.727,71.015 64.217,70.716 L62.079,69.514 L62.701,78.960 L64.332,78.960 C64.982,78.960 65.508,79.487 65.508,80.137 L65.508,83.895 L68.420,83.895 C69.070,83.895 69.596,84.422 69.596,85.072 L69.596,92.135 C69.596,92.785 69.070,93.312 68.420,93.312 L44.903,93.312 C44.253,93.312 43.727,92.785 43.727,92.135 L43.727,85.072 C43.727,84.422 44.253,83.895 44.903,83.895 L47.815,83.895 L47.815,80.137 C47.815,79.487 48.341,78.960 48.991,78.960 L51.092,78.960 L51.715,69.510 L49.503,70.748 C49.008,71.023 48.451,71.168 47.890,71.168 C46.685,71.168 45.573,70.514 44.987,69.460 C44.631,68.818 44.497,68.075 44.606,67.351 C44.609,67.299 44.616,67.246 44.627,67.194 L46.287,58.894 L40.071,53.135 C38.729,51.892 38.648,49.789 39.889,48.445 C40.391,47.901 41.061,47.542 41.788,47.423 C41.838,47.410 41.890,47.400 41.943,47.394 L50.324,46.411 L53.876,38.709 C54.417,37.535 55.602,36.776 56.894,36.776 C57.376,36.776 57.843,36.879 58.283,37.082 C59.053,37.437 59.651,38.064 59.970,38.850 L63.431,46.392 L71.853,47.395 C72.733,47.498 73.522,47.940 74.071,48.639 C74.621,49.336 74.866,50.207 74.763,51.089 ZM48.990,86.249 L46.078,86.249 L46.078,90.958 L67.244,90.958 L67.244,90.958 L67.244,86.249 L64.332,86.249 L48.990,86.249 ZM50.166,81.315 L50.166,83.895 L63.156,83.895 L63.156,81.315 L61.600,81.315 L52.193,81.315 L50.166,81.315 ZM60.344,78.960 L59.630,68.138 L56.904,66.605 L54.162,68.139 L53.449,78.960 L60.344,78.960 ZM72.225,50.096 C72.064,49.892 71.834,49.763 71.577,49.733 L62.499,48.652 C62.093,48.604 61.741,48.347 61.570,47.975 L57.820,39.807 C57.811,39.787 57.803,39.767 57.795,39.746 C57.702,39.512 57.527,39.325 57.299,39.220 C57.170,39.161 57.034,39.131 56.894,39.131 C56.516,39.131 56.170,39.352 56.012,39.696 L52.183,47.998 C52.011,48.370 51.659,48.626 51.252,48.673 L42.345,49.718 C42.302,49.728 42.258,49.736 42.213,49.740 C42.051,49.759 41.816,49.827 41.616,50.044 C41.255,50.434 41.279,51.046 41.669,51.407 L48.368,57.614 C48.668,57.892 48.803,58.307 48.722,58.709 L46.958,67.532 C46.954,67.573 46.948,67.615 46.940,67.657 C46.908,67.816 46.900,68.059 47.043,68.316 C47.214,68.623 47.538,68.814 47.890,68.814 C48.054,68.814 48.212,68.773 48.358,68.691 L56.331,64.228 C56.509,64.128 56.707,64.078 56.905,64.078 C57.103,64.078 57.302,64.128 57.481,64.228 L65.379,68.669 C65.387,68.674 65.395,68.678 65.403,68.683 C65.607,68.804 65.849,68.846 66.083,68.800 C66.609,68.698 66.953,68.186 66.851,67.659 L65.072,58.684 C64.993,58.282 65.128,57.867 65.429,57.589 L72.053,51.474 C72.065,51.462 72.078,51.451 72.091,51.441 C72.278,51.282 72.398,51.059 72.427,50.814 C72.457,50.556 72.385,50.301 72.225,50.096 ZM65.649,53.760 C65.603,53.760 65.556,53.758 65.509,53.752 L62.708,53.419 C62.063,53.342 61.603,52.756 61.680,52.111 C61.756,51.465 62.342,51.004 62.986,51.080 L65.787,51.414 C66.432,51.491 66.893,52.077 66.816,52.723 C66.744,53.321 66.237,53.760 65.649,53.760 ZM59.494,53.028 C59.447,53.028 59.398,53.025 59.349,53.020 L59.321,53.015 C58.677,52.937 58.218,52.349 58.298,51.704 C58.377,51.058 58.964,50.599 59.608,50.679 L59.636,50.682 C60.281,50.762 60.739,51.349 60.660,51.995 C60.587,52.591 60.080,53.028 59.494,53.028 Z" class="cls-2"/>
  </g>
</svg>
