<svg xmlns="http://www.w3.org/2000/svg" xmlns:xlink="http://www.w3.org/1999/xlink" preserveAspectRatio="xMidYMid" width="120.59" height="138.62" viewBox="0 0 120.59 138.62">
  <defs>
    <style>
      .cls-1 {
        fill: #191919;
        stroke: #dd2121;
        stroke-linejoin: round;
        stroke-width: 2px;
        fill-opacity: 0;
      }

      .cls-1, .cls-2 {
        fill-rule: evenodd;
      }

      .cls-2 {
        fill: #dd2121;
      }
    </style>
  </defs>
  <g>
    <path d="M60.597,137.618 L57.675,135.948 L57.166,122.650 L60.541,124.578 L108.285,96.734 L108.043,41.465 L60.058,14.039 L12.314,41.883 L12.553,96.688 L1.241,92.099 L0.993,35.414 L60.000,1.002 L119.306,34.898 L119.604,103.205 L60.597,137.618 Z" class="cls-1"/>
    <path d="M65.572,74.794 C65.572,72.271 67.625,70.218 70.149,70.218 C72.672,70.218 74.725,72.271 74.725,74.794 C74.725,77.318 72.672,79.372 70.149,79.372 C67.625,79.372 65.572,77.318 65.572,74.794 ZM72.987,74.794 C72.987,73.230 71.714,71.956 70.149,71.956 C68.583,71.956 67.310,73.230 67.310,74.794 C67.310,76.360 68.583,77.634 70.149,77.634 C71.714,77.634 72.987,76.360 72.987,74.794 ZM75.652,82.210 L75.652,89.626 C75.652,90.106 75.263,90.495 74.783,90.495 L65.514,90.495 C65.034,90.495 64.645,90.106 64.645,89.626 L64.645,82.210 C64.645,80.709 65.866,79.487 67.368,79.487 L72.929,79.487 C74.431,79.487 75.652,80.709 75.652,82.210 ZM73.914,82.210 C73.914,81.667 73.473,81.225 72.930,81.225 L67.368,81.225 C66.825,81.225 66.383,81.667 66.383,82.210 L66.383,88.757 L73.914,88.757 L73.914,88.757 L73.914,82.210 ZM90.078,93.276 L86.370,93.276 C85.890,93.276 85.501,92.886 85.501,92.406 C85.501,91.926 85.890,91.538 86.370,91.538 L90.078,91.538 C90.109,91.538 90.136,91.511 90.136,91.480 L90.136,68.248 L60.416,68.248 C59.936,68.248 59.547,67.859 59.547,67.379 L59.547,64.599 C59.547,64.566 59.521,64.541 59.489,64.541 L50.162,64.541 L50.162,91.480 C50.162,91.511 50.188,91.538 50.220,91.538 L81.851,91.538 C82.331,91.538 82.720,91.927 82.720,92.407 C82.720,92.887 82.331,93.276 81.851,93.276 L50.220,93.276 C49.229,93.276 48.424,92.470 48.424,91.480 L48.424,88.641 L42.804,88.641 C39.258,88.641 36.374,85.756 36.374,82.210 L36.374,72.072 C36.374,71.592 36.763,71.203 37.243,71.203 C37.723,71.203 38.112,71.592 38.112,72.072 L38.112,82.210 C38.112,84.798 40.217,86.903 42.804,86.903 L48.424,86.903 L48.424,84.933 L42.804,84.933 C41.303,84.933 40.081,83.712 40.081,82.210 L40.081,44.206 C40.081,42.705 41.303,41.484 42.804,41.484 L61.343,41.484 C62.844,41.484 64.066,42.705 64.066,44.206 L64.066,62.803 L66.035,62.803 L66.035,44.206 C66.035,41.619 63.930,39.514 61.343,39.514 L42.804,39.514 C40.217,39.514 38.112,41.619 38.112,44.206 L38.112,67.437 C38.112,67.918 37.723,68.307 37.243,68.307 C36.763,68.307 36.374,67.917 36.374,67.437 L36.374,44.206 C36.374,40.661 39.258,37.775 42.804,37.775 L61.343,37.775 C64.889,37.775 67.773,40.661 67.773,44.206 L67.773,62.803 L89.151,62.803 C89.631,62.803 90.020,63.192 90.020,63.672 L90.020,66.511 L91.004,66.511 C91.485,66.511 91.874,66.899 91.874,67.379 L91.874,91.480 C91.874,92.470 91.068,93.276 90.078,93.276 ZM62.328,44.206 C62.328,43.663 61.886,43.221 61.343,43.221 L42.804,43.221 C42.261,43.221 41.819,43.663 41.819,44.206 L41.819,82.210 C41.819,82.753 42.261,83.195 42.804,83.195 L48.424,83.195 L48.424,63.672 C48.424,63.192 48.813,62.803 49.293,62.803 L59.489,62.803 C60.479,62.803 61.285,63.608 61.285,64.599 L61.285,66.511 L62.328,66.511 L62.328,66.511 L62.328,44.206 ZM88.282,64.541 L64.066,64.541 L64.066,66.511 L88.282,66.511 L88.282,66.511 L88.282,64.541 ZM52.363,61.760 C47.795,61.760 44.079,58.043 44.079,53.475 C44.079,48.907 47.795,45.191 52.363,45.191 C56.931,45.191 60.648,48.907 60.648,53.475 C60.648,58.043 56.931,61.760 52.363,61.760 ZM57.925,53.534 L58.908,53.534 C58.909,53.514 58.910,53.495 58.910,53.475 C58.910,52.637 58.750,51.835 58.461,51.098 L58.250,51.309 C57.896,51.662 57.299,51.639 56.975,51.259 C56.683,50.919 56.704,50.396 57.021,50.080 L57.578,49.523 C56.547,48.167 55.000,47.224 53.232,46.989 L53.232,47.914 C53.232,48.394 52.843,48.783 52.363,48.783 C51.883,48.783 51.494,48.393 51.494,47.914 L51.494,46.988 C50.110,47.173 48.862,47.790 47.891,48.701 L48.343,49.153 C48.659,49.470 48.680,49.992 48.389,50.332 C48.064,50.712 47.467,50.735 47.114,50.382 L46.785,50.053 C46.171,51.050 45.817,52.222 45.817,53.475 C45.817,53.495 45.818,53.514 45.818,53.534 L46.802,53.534 C47.282,53.534 47.671,53.922 47.671,54.402 C47.671,54.883 47.282,55.271 46.802,55.271 L46.069,55.271 C46.297,56.069 46.672,56.804 47.163,57.446 L48.041,56.569 C48.380,56.229 48.930,56.229 49.270,56.569 C49.609,56.908 49.609,57.458 49.270,57.798 L48.392,58.675 C49.277,59.352 50.338,59.808 51.494,59.962 L51.494,59.037 C51.494,58.557 51.883,58.168 52.363,58.168 C52.843,58.168 53.232,58.557 53.232,59.037 L53.232,59.962 C54.388,59.808 55.449,59.352 56.334,58.675 L55.456,57.798 C55.117,57.458 55.117,56.908 55.456,56.569 C55.796,56.229 56.346,56.229 56.685,56.569 L57.563,57.446 C58.055,56.804 58.429,56.069 58.657,55.271 L57.925,55.271 C57.445,55.271 57.056,54.883 57.056,54.402 C57.056,53.922 57.445,53.534 57.925,53.534 ZM52.363,57.125 C50.351,57.125 48.713,55.488 48.713,53.475 C48.713,51.463 50.351,49.826 52.363,49.826 C54.376,49.826 56.013,51.463 56.013,53.475 C56.013,55.488 54.376,57.125 52.363,57.125 ZM52.363,51.563 C52.158,51.563 51.960,51.597 51.774,51.657 L52.978,52.861 C53.294,53.177 53.315,53.699 53.024,54.040 C52.699,54.420 52.102,54.443 51.749,54.090 L50.545,52.886 C50.485,53.072 50.451,53.270 50.451,53.475 C50.451,54.530 51.309,55.387 52.363,55.387 C53.417,55.387 54.275,54.529 54.275,53.475 C54.275,52.421 53.417,51.563 52.363,51.563 ZM45.191,62.975 L45.273,63.057 C45.612,63.396 45.612,63.947 45.272,64.286 C45.103,64.456 44.880,64.541 44.658,64.541 C44.436,64.541 44.213,64.456 44.044,64.286 L43.962,64.204 C43.622,63.865 43.622,63.314 43.962,62.975 C44.301,62.636 44.851,62.636 45.191,62.975 ZM45.191,66.683 L45.273,66.765 C45.612,67.104 45.612,67.654 45.272,67.994 C45.103,68.164 44.880,68.248 44.658,68.248 C44.436,68.248 44.213,68.164 44.044,67.994 L43.962,67.912 C43.622,67.572 43.622,67.022 43.962,66.683 C44.301,66.344 44.851,66.344 45.191,66.683 ZM45.191,70.391 L45.273,70.473 C45.612,70.812 45.612,71.362 45.272,71.701 C45.103,71.871 44.880,71.956 44.658,71.956 C44.436,71.956 44.213,71.871 44.044,71.701 L43.962,71.620 C43.622,71.280 43.622,70.730 43.962,70.391 C44.301,70.052 44.851,70.052 45.191,70.391 ZM45.191,74.098 L45.273,74.180 C45.612,74.520 45.612,75.070 45.272,75.409 C45.103,75.579 44.880,75.664 44.658,75.664 C44.436,75.664 44.213,75.579 44.044,75.409 L43.962,75.327 C43.622,74.988 43.622,74.438 43.962,74.098 C44.301,73.759 44.851,73.759 45.191,74.098 ZM45.191,77.806 L45.273,77.888 C45.612,78.228 45.612,78.778 45.272,79.117 C45.103,79.287 44.880,79.372 44.658,79.372 C44.436,79.372 44.213,79.287 44.044,79.117 L43.962,79.035 C43.622,78.696 43.622,78.146 43.962,77.806 C44.301,77.467 44.851,77.467 45.191,77.806 ZM45.191,80.587 L45.273,80.669 C45.612,81.008 45.612,81.559 45.272,81.898 C45.103,82.068 44.880,82.152 44.658,82.152 C44.436,82.152 44.213,82.068 44.044,81.898 L43.962,81.816 C43.622,81.476 43.622,80.926 43.962,80.587 C44.301,80.248 44.851,80.248 45.191,80.587 Z" class="cls-2"/>
  </g>
</svg>
