<svg xmlns="http://www.w3.org/2000/svg" xmlns:xlink="http://www.w3.org/1999/xlink" preserveAspectRatio="xMidYMid" width="120.594" height="138.62" viewBox="0 0 120.594 138.62">
  <defs>
    <style>
      .cls-1 {
        fill: #191919;
        stroke: #dd2121;
        stroke-linejoin: round;
        stroke-width: 2px;
        fill-opacity: 0;
      }

      .cls-1, .cls-2 {
        fill-rule: evenodd;
      }

      .cls-2 {
        fill: #dd2121;
      }
    </style>
  </defs>
  <g>
    <path d="M60.597,137.618 L57.675,135.948 L57.166,122.649 L60.541,124.578 L108.285,96.734 L108.043,41.464 L60.058,14.039 L12.314,41.883 L12.553,96.688 L1.241,92.099 L0.993,35.414 L60.000,1.002 L119.306,34.898 L119.604,103.206 L60.597,137.618 Z" class="cls-1"/>
    <path d="M82.565,52.245 C80.603,52.245 79.007,53.841 79.007,55.804 C79.007,56.462 79.198,57.070 79.511,57.600 L70.129,66.984 C69.600,66.671 68.992,66.480 68.334,66.480 C67.678,66.480 67.071,66.670 66.542,66.982 L62.495,62.933 C62.807,62.405 62.997,61.797 62.997,61.141 C62.997,59.179 61.401,57.583 59.439,57.583 C57.477,57.583 55.881,59.179 55.881,61.141 C55.881,61.562 55.968,61.958 56.102,62.332 L38.626,79.813 C38.003,79.274 37.200,78.936 36.313,78.936 L36.313,47.796 C36.313,46.324 37.511,45.127 38.982,45.127 L79.896,45.127 C81.367,45.127 82.565,46.324 82.565,47.796 L82.565,49.575 C82.565,50.067 82.963,50.465 83.454,50.465 C83.945,50.465 84.343,50.067 84.343,49.575 L84.343,47.796 C84.343,45.343 82.348,43.347 79.896,43.347 L38.982,43.347 C36.530,43.347 34.535,45.343 34.535,47.796 L34.535,79.431 C33.476,80.049 32.756,81.183 32.756,82.494 C32.756,84.457 34.351,86.053 36.313,86.053 C38.276,86.053 39.871,84.457 39.871,82.494 C39.871,82.074 39.785,81.678 39.651,81.304 L57.127,63.823 C57.750,64.362 58.552,64.700 59.439,64.700 C60.099,64.700 60.709,64.509 61.239,64.194 L65.282,68.238 C64.968,68.768 64.776,69.379 64.776,70.038 C64.776,72.001 66.371,73.598 68.334,73.598 C70.296,73.598 71.891,72.001 71.891,70.038 C71.891,69.380 71.700,68.771 71.387,68.243 L80.769,58.857 C81.298,59.171 81.907,59.362 82.565,59.362 L82.565,88.722 C82.565,90.194 81.368,91.391 79.896,91.391 L77.228,91.391 L77.228,67.369 C77.228,66.878 76.830,66.480 76.339,66.480 C75.848,66.480 75.449,66.878 75.449,67.369 L75.449,91.391 L70.113,91.391 L70.113,76.267 C70.113,75.775 69.714,75.377 69.223,75.377 C68.732,75.377 68.334,75.775 68.334,76.267 L68.334,91.392 L62.997,91.392 L62.997,69.149 C62.997,68.658 62.599,68.259 62.108,68.259 C61.617,68.259 61.218,68.658 61.218,69.149 L61.218,91.392 L55.882,91.392 L55.882,69.149 C55.882,68.658 55.483,68.259 54.992,68.259 C54.501,68.259 54.103,68.658 54.103,69.149 L54.103,91.392 L48.766,91.392 L48.766,76.267 C48.766,75.775 48.368,75.377 47.877,75.377 C47.386,75.377 46.987,75.775 46.987,76.267 L46.987,91.392 L41.651,91.392 L41.651,87.833 C41.651,87.342 41.252,86.943 40.761,86.943 C40.270,86.943 39.872,87.342 39.872,87.833 L39.872,91.392 L38.982,91.392 C37.511,91.392 36.314,90.194 36.314,88.722 C36.314,88.231 35.916,87.833 35.425,87.833 C34.934,87.833 34.535,88.231 34.535,88.722 C34.535,91.176 36.530,93.171 38.982,93.171 L79.897,93.171 C82.349,93.171 84.344,91.176 84.344,88.722 L84.344,58.867 C85.403,58.249 86.123,57.115 86.123,55.804 C86.123,53.841 84.527,52.245 82.565,52.245 ZM36.313,84.274 C35.332,84.274 34.535,83.476 34.535,82.494 C34.535,81.513 35.332,80.715 36.313,80.715 C37.295,80.715 38.092,81.513 38.092,82.494 C38.092,83.476 37.295,84.274 36.313,84.274 ZM59.439,62.921 C58.458,62.921 57.660,62.123 57.660,61.141 C57.660,60.160 58.458,59.362 59.439,59.362 C60.420,59.362 61.218,60.160 61.218,61.141 C61.218,62.123 60.420,62.921 59.439,62.921 ZM68.334,71.818 C67.353,71.818 66.555,71.020 66.555,70.038 C66.555,69.057 67.352,68.259 68.334,68.259 C69.315,68.259 70.112,69.057 70.112,70.038 C70.112,71.020 69.315,71.818 68.334,71.818 ZM82.565,57.583 C82.080,57.583 81.640,57.386 81.319,57.070 C81.315,57.067 81.314,57.061 81.311,57.058 C81.307,57.055 81.302,57.054 81.298,57.049 C80.982,56.729 80.786,56.288 80.786,55.804 C80.786,54.822 81.584,54.024 82.565,54.024 C83.546,54.024 84.344,54.822 84.344,55.804 C84.344,56.785 83.546,57.583 82.565,57.583 Z" class="cls-2"/>
  </g>
</svg>
