<svg xmlns="http://www.w3.org/2000/svg" xmlns:xlink="http://www.w3.org/1999/xlink" preserveAspectRatio="xMidYMid" width="120.59" height="138.62" viewBox="0 0 120.59 138.62">
  <defs>
    <style>
      .cls-1 {
        fill: #dd2121;
      }

      .cls-1, .cls-2 {
        fill-rule: evenodd;
      }

      .cls-2 {
        fill: #191919;
        stroke: #dd2121;
        stroke-linejoin: round;
        stroke-width: 2px;
        fill-opacity: 0;
      }
    </style>
  </defs>
  <g>
    <path d="M87.139,95.729 C86.555,95.729 86.166,95.339 86.166,94.755 C86.166,94.171 86.555,93.781 87.139,93.781 C87.722,93.781 88.112,94.171 88.112,94.755 C88.112,95.339 87.722,95.729 87.139,95.729 ZM85.194,56.787 L84.221,56.787 L84.221,57.761 C84.221,58.345 83.832,58.734 83.248,58.734 C82.665,58.734 82.276,58.345 82.276,57.761 L82.276,56.787 L81.303,56.787 C80.719,56.787 80.330,56.398 80.330,55.813 C80.330,55.229 80.719,54.840 81.303,54.840 L82.276,54.840 L82.276,53.866 C82.276,53.282 82.665,52.892 83.248,52.892 C83.832,52.892 84.221,53.282 84.221,53.866 L84.221,54.840 L85.194,54.840 C85.777,54.840 86.166,55.229 86.166,55.813 C86.166,56.398 85.777,56.787 85.194,56.787 ZM81.303,74.311 C81.303,74.895 80.914,75.284 80.330,75.284 C79.747,75.284 79.358,74.895 79.358,74.311 C79.358,73.726 79.747,73.337 80.330,73.337 C80.914,73.337 81.303,73.726 81.303,74.311 ZM72.549,97.675 L47.260,97.675 C45.120,97.675 43.369,95.923 43.369,93.781 L43.369,89.887 L43.369,89.887 L43.369,58.734 C42.786,58.734 42.397,58.345 42.397,57.761 L42.397,56.787 C42.397,56.203 42.786,55.813 43.369,55.813 L43.369,54.840 C42.786,54.840 42.397,54.450 42.397,53.866 L42.397,52.892 C42.397,52.308 42.786,51.919 43.369,51.919 L43.369,50.946 C42.786,50.946 42.397,50.556 42.397,49.972 L42.397,48.999 C42.397,48.415 42.786,48.025 43.369,48.025 L43.369,45.104 L43.369,45.104 L43.369,43.157 C43.369,41.015 45.120,39.263 47.260,39.263 L72.549,39.263 C74.689,39.263 76.440,41.015 76.440,43.157 L76.440,93.781 C76.440,95.923 74.689,97.675 72.549,97.675 ZM59.904,94.755 C60.974,94.755 61.850,93.879 61.850,92.808 C61.850,91.737 60.974,90.860 59.904,90.860 C58.834,90.860 57.959,91.737 57.959,92.808 C57.959,93.879 58.834,94.755 59.904,94.755 ZM45.315,93.781 C45.315,94.852 46.190,95.729 47.260,95.729 L57.363,95.729 C56.544,95.013 56.014,93.975 56.014,92.808 C56.014,91.641 56.544,90.602 57.363,89.887 L45.315,89.887 L45.315,93.781 ZM45.315,87.940 L74.494,87.940 L74.494,47.051 L45.315,47.051 L45.315,87.940 ZM74.494,43.157 C74.494,42.086 73.619,41.210 72.549,41.210 L47.260,41.210 C46.190,41.210 45.315,42.086 45.315,43.157 L45.315,45.104 L74.494,45.104 L74.494,43.157 ZM74.494,89.887 L62.446,89.887 C63.265,90.602 63.795,91.641 63.795,92.808 C63.795,93.975 63.265,95.013 62.446,95.729 L72.549,95.729 C73.619,95.729 74.494,94.852 74.494,93.781 L74.494,93.781 L74.494,89.887 ZM55.041,42.184 L56.014,42.184 C56.597,42.184 56.986,42.573 56.986,43.157 C56.986,43.741 56.597,44.130 56.014,44.130 L55.041,44.130 C54.458,44.130 54.069,43.741 54.069,43.157 C54.069,42.573 54.458,42.184 55.041,42.184 ZM58.932,42.184 L63.795,42.184 C64.379,42.184 64.768,42.573 64.768,43.157 C64.768,43.741 64.379,44.130 63.795,44.130 L58.932,44.130 C58.348,44.130 57.959,43.741 57.959,43.157 C57.959,42.573 58.348,42.184 58.932,42.184 ZM67.686,72.363 C66.032,72.363 64.768,71.098 64.768,69.443 C64.768,67.788 66.032,66.522 67.686,66.522 C69.339,66.522 70.604,67.788 70.604,69.443 C70.604,71.098 69.339,72.363 67.686,72.363 ZM67.686,68.470 C67.102,68.470 66.713,68.859 66.713,69.443 C66.713,70.027 67.102,70.416 67.686,70.416 C68.269,70.416 68.658,70.027 68.658,69.443 C68.658,68.859 68.269,68.470 67.686,68.470 ZM67.686,64.575 C66.032,64.575 64.768,63.310 64.768,61.654 C64.768,59.999 66.032,58.734 67.686,58.734 C69.339,58.734 70.604,59.999 70.604,61.654 C70.604,63.310 69.339,64.575 67.686,64.575 ZM67.686,60.681 C67.102,60.681 66.713,61.070 66.713,61.654 C66.713,62.239 67.102,62.628 67.686,62.628 C68.269,62.628 68.658,62.239 68.658,61.654 C68.658,61.070 68.269,60.681 67.686,60.681 ZM67.686,56.787 C66.032,56.787 64.768,55.521 64.768,53.866 C64.768,52.211 66.032,50.946 67.686,50.946 C69.339,50.946 70.604,52.211 70.604,53.866 C70.604,55.521 69.339,56.787 67.686,56.787 ZM67.686,52.892 C67.102,52.892 66.713,53.282 66.713,53.866 C66.713,54.450 67.102,54.840 67.686,54.840 C68.269,54.840 68.658,54.450 68.658,53.866 C68.658,53.282 68.269,52.892 67.686,52.892 ZM59.904,83.072 C58.251,83.072 56.986,81.807 56.986,80.152 C56.986,78.497 58.251,77.231 59.904,77.231 C61.558,77.231 62.822,78.497 62.822,80.152 C62.822,81.807 61.558,83.072 59.904,83.072 ZM59.904,79.179 C59.321,79.179 58.932,79.568 58.932,80.152 C58.932,80.736 59.321,81.125 59.904,81.125 C60.488,81.125 60.877,80.736 60.877,80.152 C60.877,79.568 60.488,79.179 59.904,79.179 ZM59.904,72.363 C58.251,72.363 56.986,71.098 56.986,69.443 C56.986,67.788 58.251,66.522 59.904,66.522 C61.558,66.522 62.822,67.788 62.822,69.443 C62.822,71.098 61.558,72.363 59.904,72.363 ZM59.904,68.470 C59.321,68.470 58.932,68.859 58.932,69.443 C58.932,70.027 59.321,70.416 59.904,70.416 C60.488,70.416 60.877,70.027 60.877,69.443 C60.877,68.858 60.488,68.470 59.904,68.470 ZM59.904,64.575 C58.251,64.575 56.986,63.310 56.986,61.654 C56.986,59.999 58.251,58.734 59.904,58.734 C61.558,58.734 62.822,59.999 62.822,61.654 C62.822,63.310 61.558,64.575 59.904,64.575 ZM59.904,60.681 C59.321,60.681 58.932,61.070 58.932,61.654 C58.932,62.239 59.321,62.628 59.904,62.628 C60.488,62.628 60.877,62.239 60.877,61.654 C60.877,61.070 60.488,60.681 59.904,60.681 ZM59.904,56.787 C58.251,56.787 56.986,55.521 56.986,53.866 C56.986,52.211 58.251,50.946 59.904,50.946 C61.558,50.946 62.822,52.211 62.822,53.866 C62.822,55.521 61.558,56.787 59.904,56.787 ZM59.904,52.892 C59.321,52.892 58.932,53.282 58.932,53.866 C58.932,54.450 59.321,54.840 59.904,54.840 C60.488,54.840 60.877,54.450 60.877,53.866 C60.877,53.282 60.488,52.892 59.904,52.892 ZM52.123,72.363 C50.470,72.363 49.205,71.098 49.205,69.443 C49.205,67.788 50.470,66.522 52.123,66.522 C53.777,66.522 55.041,67.788 55.041,69.443 C55.041,71.098 53.777,72.363 52.123,72.363 ZM52.123,68.470 C51.540,68.470 51.151,68.859 51.151,69.443 C51.151,70.027 51.540,70.416 52.123,70.416 C52.707,70.416 53.096,70.027 53.096,69.443 C53.096,68.859 52.707,68.470 52.123,68.470 ZM52.123,64.575 C50.470,64.575 49.205,63.310 49.205,61.654 C49.205,59.999 50.470,58.734 52.123,58.734 C53.777,58.734 55.041,59.999 55.041,61.654 C55.041,63.310 53.777,64.575 52.123,64.575 ZM52.123,60.681 C51.540,60.681 51.151,61.070 51.151,61.654 C51.151,62.239 51.540,62.628 52.123,62.628 C52.707,62.628 53.096,62.239 53.096,61.654 C53.096,61.070 52.707,60.681 52.123,60.681 ZM52.123,56.787 C50.470,56.787 49.205,55.521 49.205,53.866 C49.205,52.211 50.470,50.946 52.123,50.946 C53.777,50.946 55.041,52.211 55.041,53.866 C55.041,55.521 53.777,56.787 52.123,56.787 ZM52.123,52.892 C51.540,52.892 51.151,53.282 51.151,53.866 C51.151,54.450 51.540,54.840 52.123,54.840 C52.707,54.840 53.096,54.450 53.096,53.866 C53.096,53.282 52.707,52.892 52.123,52.892 ZM39.479,45.104 C37.825,45.104 36.561,46.370 36.561,48.025 C36.561,49.291 34.615,49.291 34.615,48.025 C34.615,46.370 33.351,45.104 31.697,45.104 C30.433,45.104 30.433,43.157 31.697,43.157 C33.351,43.157 34.615,41.892 34.615,40.237 C34.615,38.971 36.561,38.971 36.561,40.237 C36.561,41.892 37.825,43.157 39.479,43.157 C40.743,43.157 40.743,45.104 39.479,45.104 ZM35.588,43.157 C35.296,43.547 35.004,43.839 34.615,44.131 C35.004,44.423 35.296,44.715 35.588,45.104 C35.880,44.715 36.172,44.423 36.561,44.131 C36.172,43.839 35.880,43.547 35.588,43.157 ZM32.670,63.601 C33.254,63.601 33.643,63.991 33.643,64.575 C33.643,65.159 33.254,65.549 32.670,65.549 C32.086,65.549 31.697,65.159 31.697,64.575 C31.697,63.991 32.086,63.601 32.670,63.601 ZM37.533,81.125 C38.117,81.125 38.506,81.515 38.506,82.099 C38.506,82.683 38.117,83.072 37.533,83.072 C36.950,83.072 36.561,82.683 36.561,82.099 C36.561,81.515 36.950,81.125 37.533,81.125 Z" class="cls-1"/>
    <path d="M60.597,137.618 L57.675,135.948 L57.166,122.649 L60.541,124.578 L108.285,96.734 L108.043,41.464 L60.058,14.039 L12.314,41.883 L12.553,96.688 L1.241,92.099 L0.993,35.414 L60.000,1.002 L119.306,34.898 L119.604,103.206 L60.597,137.618 Z" class="cls-2"/>
  </g>
</svg>
